<svg width="35" height="24" viewBox="0 0 35 24" fill="none" xmlns="http://www.w3.org/2000/svg">
<g filter="url(#filter0_b_2_2169)">
<rect width="34.6708" height="24" rx="8" fill="#BB0A21" fill-opacity="0.33"/>
<g opacity="0.5">
<path fill-rule="evenodd" clip-rule="evenodd" d="M12.4623 8.29245H17.336C18.9726 8.29289 20.6093 8.2931 22.2459 8.2931C22.5106 8.2931 22.6708 8.13292 22.6708 7.86789V7.22095C22.6704 6.90611 22.5236 6.75894 22.2091 6.75894C22.091 6.7589 21.973 6.75884 21.855 6.75879C21.0877 6.75843 20.3205 6.75807 19.5533 6.7609C19.4654 6.76122 19.4126 6.74201 19.3768 6.65508C19.3255 6.5358 19.2673 6.41959 19.2026 6.30703C19.0903 6.10679 18.9203 6 18.6869 6H15.9819C15.7481 5.99968 15.5785 6.10712 15.4672 6.30801C15.4067 6.41333 15.3524 6.52204 15.3044 6.63359C15.2666 6.72801 15.2096 6.76057 15.1038 6.76057C14.4261 6.75687 13.7483 6.75728 13.0704 6.7577C12.8547 6.75783 12.639 6.75797 12.4233 6.75797C12.1602 6.75829 12 6.9188 12 7.18416V7.8311C12 8.14529 12.1475 8.29245 12.4623 8.29245ZM21.9062 8.84809H12.7647C12.7784 9.07242 12.7911 9.2834 12.8035 9.49438C12.8378 10.0707 12.8731 10.647 12.9093 11.2232C12.9258 11.4852 12.9429 11.7472 12.96 12.0092C12.981 12.3314 13.002 12.6536 13.022 12.9759C13.0391 13.2528 13.0555 13.5298 13.072 13.8068C13.0903 14.1144 13.1086 14.422 13.1278 14.7295C13.1432 14.9768 13.1599 15.2241 13.1766 15.4714C13.2083 15.9421 13.2401 16.4129 13.2635 16.8842C13.2941 17.5071 13.7841 17.999 14.405 17.999C16.3586 18.0003 18.3121 18.0003 20.2656 17.999C20.8533 17.9987 21.3511 17.5559 21.399 16.9698C21.4372 16.4989 21.4644 16.0272 21.4915 15.5555C21.5031 15.3534 21.5147 15.1513 21.5272 14.9492C21.5618 14.381 21.5967 13.8127 21.6321 13.2445C21.6701 12.635 21.7083 12.0264 21.7467 11.4186C21.7849 10.8345 21.8223 10.2502 21.859 9.66564C21.8703 9.48513 21.8804 9.30462 21.8907 9.12237C21.8958 9.03145 21.9009 8.94009 21.9062 8.84809Z" fill="white"/>
</g>
</g>
<defs>
<filter id="filter0_b_2_2169" x="-10" y="-10" width="54.6708" height="44" filterUnits="userSpaceOnUse" color-interpolation-filters="sRGB">
<feFlood flood-opacity="0" result="BackgroundImageFix"/>
<feGaussianBlur in="BackgroundImageFix" stdDeviation="5"/>
<feComposite in2="SourceAlpha" operator="in" result="effect1_backgroundBlur_2_2169"/>
<feBlend mode="normal" in="SourceGraphic" in2="effect1_backgroundBlur_2_2169" result="shape"/>
</filter>
</defs>
</svg>
