<svg width="16" height="17" viewBox="0 0 16 17" fill="none" xmlns="http://www.w3.org/2000/svg">
<path d="M10.456 7.9L9.736 8.636C9.16 9.212 8.8 9.7 8.8 10.9H7.2V10.5C7.2 9.612 7.56 8.812 8.136 8.236L9.128 7.228C9.424 6.94 9.6 6.54 9.6 6.1C9.6 5.212 8.88 4.5 8 4.5C7.57565 4.5 7.16869 4.66857 6.86863 4.96863C6.56857 5.26869 6.4 5.67565 6.4 6.1H4.8C4.8 5.25131 5.13714 4.43737 5.73726 3.83726C6.33737 3.23714 7.15131 2.9 8 2.9C8.84869 2.9 9.66263 3.23714 10.2627 3.83726C10.8629 4.43737 11.2 5.25131 11.2 6.1C11.2 6.804 10.912 7.436 10.456 7.9ZM8.8 14.1H7.2V12.5H8.8V14.1ZM8 0.5C6.94943 0.5 5.90914 0.706926 4.93853 1.10896C3.96793 1.511 3.08601 2.10028 2.34315 2.84315C0.842855 4.34344 0 6.37827 0 8.5C0 10.6217 0.842855 12.6566 2.34315 14.1569C3.08601 14.8997 3.96793 15.489 4.93853 15.891C5.90914 16.2931 6.94943 16.5 8 16.5C10.1217 16.5 12.1566 15.6571 13.6569 14.1569C15.1571 12.6566 16 10.6217 16 8.5C16 4.076 12.4 0.5 8 0.5Z" fill="#666666"/>
</svg>
